# xmcd
#
# Track frame offsets:
#	183
#	11703
#	24245
#	37233
#	49245
#	59028
#	69350
#	82808
#	93683
#	109908
#	124428
#	135325
#	151803
#	163603
#	174753
#	184953
#	197670
#	208683
#	224258
#	237013
#	252263
#	263315
#
# Disc length: 3661 seconds
#
# Revision: 0
# Processed by: cddbd v1.4PL0 Copyright (c) Steve Scherf et al.
# Submitted via: dBpowerAMP V4.0
#
DISCID=2f0e4b16
DTITLE=Bobby Bare - The Mercury Years, 1970-1972, Part 1
DYEAR=1900
DGENRE=Country
TTITLE0=That's How I Got to Memphis
TTITLE1=Come Sundown
TTITLE2=I Took a Memory to Lunch
TTITLE3=I'm Her Hoss If I Never Win a Race
TTITLE4=Woman You've Been a Friend to Me
TTITLE5=It's Freezing in El Paso
TTITLE6=Mrs. Jones Your Daughter Cried All Night
TTITLE7=Don't It Make You Want to Go Home
TTITLE8=Mary Ann Regrets
TTITLE9=Leaving on a Jet Plane
TTITLE10=The Fool
TTITLE11=The Waitress in the Main Street Cafe
TTITLE12=Please Don't Tell Me How the Story Ends
TTITLE13=How About You
TTITLE14=Help Me Make It Through the Night
TTITLE15=Rosalie
TTITLE16=Dropping Out of Sight
TTITLE17=Where Have All the Seasons Gone
TTITLE18=Traveling Minstrel Man
TTITLE19=For the Good Times
TTITLE20=Hello Darlin'
TTITLE21=Alabama Rose
EXTD=
EXTT0=
EXTT1=
EXTT2=
EXTT3=
EXTT4=
EXTT5=
EXTT6=
EXTT7=
EXTT8=
EXTT9=
EXTT10=
EXTT11=
EXTT12=
EXTT13=
EXTT14=
EXTT15=
EXTT16=
EXTT17=
EXTT18=
EXTT19=
EXTT20=
EXTT21=
PLAYORDER=
